<svg width="18" height="18" viewBox="0 0 18 18" fill="none" xmlns="http://www.w3.org/2000/svg">
<g id="Component 17" clip-path="url(#clip0_97_262)">
<path id="Vector" d="M13.125 1.43774C12.2805 1.45088 11.4544 1.68663 10.7301 2.1212C10.0058 2.55576 9.40905 3.17375 9.00003 3.91274C8.59101 3.17375 7.99423 2.55576 7.26996 2.1212C6.54569 1.68663 5.71957 1.45088 4.87503 1.43774C3.52874 1.49624 2.26031 2.08518 1.34687 3.07592C0.433424 4.06665 -0.0507831 5.37864 2.97532e-05 6.72524C2.97532e-05 10.1355 3.58953 13.86 6.60003 16.3852C7.27219 16.9501 8.12205 17.2598 9.00003 17.2598C9.87801 17.2598 10.7279 16.9501 11.4 16.3852C14.4105 13.86 18 10.1355 18 6.72524C18.0508 5.37864 17.5666 4.06665 16.6532 3.07592C15.7398 2.08518 14.4713 1.49624 13.125 1.43774ZM10.4363 15.2377C10.0343 15.5763 9.52559 15.7619 9.00003 15.7619C8.47447 15.7619 7.96579 15.5763 7.56378 15.2377C3.71028 12.0045 1.50003 8.90249 1.50003 6.72524C1.44876 5.77628 1.7748 4.84554 2.40705 4.13602C3.0393 3.4265 3.92646 2.99576 4.87503 2.93774C5.8236 2.99576 6.71076 3.4265 7.34301 4.13602C7.97526 4.84554 8.3013 5.77628 8.25003 6.72524C8.25003 6.92416 8.32905 7.11492 8.4697 7.25557C8.61035 7.39623 8.80112 7.47524 9.00003 7.47524C9.19894 7.47524 9.38971 7.39623 9.53036 7.25557C9.67101 7.11492 9.75003 6.92416 9.75003 6.72524C9.69876 5.77628 10.0248 4.84554 10.6571 4.13602C11.2893 3.4265 12.1765 2.99576 13.125 2.93774C14.0736 2.99576 14.9608 3.4265 15.593 4.13602C16.2253 4.84554 16.5513 5.77628 16.5 6.72524C16.5 8.90249 14.2898 12.0045 10.4363 15.2347V15.2377Z" fill="#3E3E3D"/>
</g>
<defs>
<clipPath id="clip0_97_262">
<rect width="18" height="18" fill="white"/>
</clipPath>
</defs>
</svg>
