<svg width="12" height="12" viewBox="0 0 12 12" fill="none" xmlns="http://www.w3.org/2000/svg">
<g clip-path="url(#clip0_95_67)">
<path d="M5.99999 0.0112534C5.50198 0.0112534 5.00423 0.200301 4.62562 0.57891L0.578899 4.62516C-0.178318 5.38238 -0.178318 6.61716 0.578899 7.37438L4.62562 11.4211C5.38265 12.1781 6.61734 12.1781 7.37437 11.4211L11.4211 7.37485C12.1783 6.61763 12.1783 5.38284 11.4211 4.62563L7.37484 0.57891C6.99623 0.200301 6.498 0.0112534 5.99999 0.0112534ZM5.99999 0.487972C6.37414 0.487972 6.74855 0.631373 7.03546 0.918285L9.23671 3.12H8.89687C8.51504 3.12 8.14878 3.27166 7.87874 3.54141V3.54188L6.25452 5.1661C6.11203 5.30859 5.88777 5.30873 5.74499 5.1661L4.12077 3.54188C3.8511 3.27192 3.48495 3.12 3.10312 3.12H2.76281L4.96499 0.918285C5.2519 0.631373 5.62584 0.487972 5.99999 0.487972ZM2.28281 3.6H3.10312C3.35777 3.6 3.60179 3.70099 3.7814 3.88078V3.88125L5.40562 5.50547C5.7318 5.83132 6.26791 5.83146 6.5939 5.50547L8.21812 3.88125C8.39832 3.70123 8.64222 3.6 8.89687 3.6H9.71671L11.0817 4.965C11.6555 5.53883 11.6555 6.46165 11.0817 7.03547L9.71718 8.4H8.89687C8.64222 8.4 8.39832 8.29876 8.21812 8.11875L6.5939 6.49453C6.4309 6.33154 6.21546 6.25032 5.99999 6.25032C5.78452 6.25031 5.56871 6.33161 5.40562 6.49453L3.7814 8.11875V8.11922C3.60179 8.29901 3.35777 8.4 3.10312 8.4H2.28327L0.918274 7.035C0.344451 6.46118 0.344451 5.53836 0.918274 4.96453L2.28281 3.6ZM5.99999 6.72703C6.09172 6.72705 6.18328 6.76266 6.25452 6.83391L7.87874 8.45813V8.4586C8.14878 8.72834 8.51504 8.88 8.89687 8.88H9.23718L7.03499 11.0817C6.46146 11.6553 5.53852 11.6553 4.96499 11.0817L2.76327 8.88H3.10312C3.48495 8.88 3.8511 8.72809 4.12077 8.45813L5.74499 6.83391C5.81638 6.76259 5.90827 6.72702 5.99999 6.72703Z" fill="white"/>
</g>
<defs>
<clipPath id="clip0_95_67">
<rect width="12" height="12" fill="white"/>
</clipPath>
</defs>
</svg>
