<svg width="57" height="24" viewBox="0 0 57 24" fill="none" xmlns="http://www.w3.org/2000/svg">
<g id="Logo">
<path id="Vector" d="M47.1548 5.17209H44.7556C42.7587 5.19255 41.7899 5.92752 41.7899 8.05059L41.8118 16.3263C41.8118 17.0152 41.3959 18.949 39.6882 19.2167C39.6172 19.2304 39.5411 19.2372 39.465 19.2423H39.3162C39.2367 19.2372 39.1623 19.2304 39.0862 19.2167C37.3785 18.9507 36.9609 17.0118 36.9609 16.3263L36.9829 8.05059C36.9829 5.92752 36.014 5.19255 34.0155 5.17209H31.6196V12.3138L31.6027 15.6714C31.6027 22.7551 35.2853 23.6436 38.7515 23.9557L39.0812 23.9846L39.3855 23.9898L39.6848 23.9846L40.0179 23.9557C43.4824 23.6419 47.1684 22.7551 47.1684 15.6714L47.1498 12.3138V5.17209H47.1548Z" fill="#3E3E3D"/>
<path id="Vector_2" d="M3.90701 12.324C4.04396 12.1279 7.0587 8.50078 7.0587 8.50078L6.86087 8.40017C5.78213 7.84766 4.69324 7.48785 3.85966 8.53829C3.83261 8.56899 2.1587 10.467 1.06473 11.913C0.785749 12.2797 0.521981 12.7128 0.5 13.2278V13.2602C0.521981 13.7769 0.78913 14.2083 1.06473 14.5767C2.1587 16.0244 3.83261 17.9241 3.85966 17.9531C4.69324 19.0001 5.78213 18.642 6.86087 18.0912L7.0587 17.9889C7.0587 17.9889 4.04734 14.3618 3.90701 14.164C3.7599 13.9576 3.38961 13.4887 3.38961 13.2602V13.2193C3.38961 13.001 3.75821 12.5337 3.90701 12.324Z" fill="#3E3E3D"/>
<path id="Vector_3" d="M55.9335 11.913C54.843 10.4653 53.169 8.56728 53.142 8.53829C52.3033 7.48785 51.2195 7.84936 50.1391 8.40017L49.9396 8.50078C49.9396 8.50078 52.9509 12.1279 53.0913 12.324C53.2401 12.5337 53.607 13.001 53.607 13.2193V13.2602C53.607 13.4887 53.2384 13.9576 53.0913 14.164C52.9509 14.3618 49.9396 17.9889 49.9396 17.9889L50.1391 18.0912C51.2195 18.642 52.2983 19.0001 53.142 17.9531C53.169 17.9224 54.8413 16.0244 55.9335 14.5767C56.2125 14.2083 56.4763 13.7769 56.5 13.2602V13.2278C56.4746 12.7128 56.2125 12.2797 55.9335 11.913Z" fill="#3E3E3D"/>
<path id="Vector_4" d="M26.7162 2.48117C24.9408 0.832173 22.577 0 19.6553 0C18.0372 0 16.5611 0.318886 15.2761 0.960068C13.9927 1.5842 12.9613 2.49652 12.1971 3.66292C11.2316 5.13457 10.5638 6.75288 10.1833 8.49396C9.80457 10.2214 9.7251 12.0614 9.96182 13.9679C10.3423 17.167 11.4548 19.6618 13.2302 21.4063C15.0208 23.1491 17.322 24 20.2403 24C22.0038 24 23.5746 23.6129 24.8918 22.8779C26.2241 22.1259 27.3485 20.9885 28.2531 19.5015C29.0309 18.1901 29.5855 16.6878 29.8729 15.0217C30.1587 13.342 30.1756 11.5174 29.9524 9.59898C29.572 6.52778 28.4915 4.12676 26.7162 2.48117ZM23.1773 16.1762C22.4739 18.1509 21.4036 18.9575 20.0915 19.0053C19.0923 19.0394 18.3077 18.7051 17.6956 18.0196C17.0971 17.3597 16.6423 16.3553 16.4174 14.9314C16.2077 13.5927 16.1705 12.1739 16.2889 10.7091C16.4038 9.22041 16.6625 8.03183 17.0278 7.15021C17.3541 6.36919 17.748 5.84397 18.1538 5.52167C18.5529 5.19255 19.072 5.00327 19.7297 4.9811C20.8186 4.94358 21.6336 5.25224 22.2456 5.86614C22.8357 6.47151 23.2787 7.40941 23.5053 8.81455C23.9787 11.8499 23.8367 14.3192 23.1773 16.1779V16.1762Z" fill="#3E3E3D"/>
</g>
</svg>
