<svg width="19" height="18" viewBox="0 0 19 18" fill="none" xmlns="http://www.w3.org/2000/svg">
<g id="next (1) 1" clip-path="url(#clip0_1_41)">
<g id="Group">
<g id="Group_2">
<path id="Vector" d="M9.5 0C4.53724 0 0.5 4.03724 0.5 9C0.5 13.9628 4.53724 18 9.5 18C14.4628 18 18.5 13.9628 18.5 9C18.5 4.03724 14.4628 0 9.5 0ZM12.2803 9.53026L8.53025 13.2802C8.384 13.4265 8.19201 13.5 7.99999 13.5C7.808 13.5 7.61598 13.4265 7.46973 13.2802C7.17649 12.987 7.17649 12.513 7.46973 12.2198L10.6895 9L7.46976 5.78025C7.17652 5.48701 7.17652 5.013 7.46976 4.71976C7.763 4.42652 8.23701 4.42652 8.53025 4.71976L12.2803 8.46977C12.5735 8.76301 12.5735 9.23699 12.2803 9.53026Z" fill="white"/>
</g>
</g>
</g>
<defs>
<clipPath id="clip0_1_41">
<rect width="18" height="18" fill="white" transform="translate(0.5)"/>
</clipPath>
</defs>
</svg>
